<svg width="1076" height="647" viewBox="0 0 1076 647" fill="none" xmlns="http://www.w3.org/2000/svg">
<g clip-path="url(#clip0)">
<path d="M8.33785 289.494L615.112 209.683L662.694 571.438L55.9201 651.248L8.33785 289.494Z" fill="#6455C2"/>
<path d="M464.945 229.435C470.572 267.421 490.903 301.673 521.553 324.806C552.204 347.938 590.718 358.098 628.79 353.094C630.496 352.87 632.187 352.617 633.875 352.335L615.112 209.683L464.945 229.435Z" fill="#6C63FF"/>
<path d="M329.626 615.246L387.335 607.656C384.387 602.036 379.786 597.456 374.152 594.534C368.518 591.613 362.124 590.49 355.832 591.317C349.54 592.145 343.654 594.883 338.967 599.162C334.281 603.441 331.02 609.055 329.626 615.246V615.246Z" fill="#6C63FF"/>
<path d="M31.308 464.129L47.3353 585.98C62.8782 583.158 76.7399 574.465 86.0492 561.702C95.3584 548.94 99.4018 533.085 97.3417 517.423C95.2816 501.761 87.276 487.491 74.9831 477.57C62.6902 467.649 47.0521 462.836 31.308 464.129V464.129Z" fill="#6C63FF"/>
<path d="M518.841 357.469C517.401 346.518 507.356 338.807 496.405 340.247L125.596 388.999C114.644 390.439 106.933 400.484 108.373 411.435L122.191 516.531C123.631 527.482 133.676 535.193 144.627 533.753L515.436 485.001C526.388 483.561 534.098 473.516 532.658 462.565L518.841 357.469Z" fill="white"/>
<rect width="175.151" height="74.0998" rx="20" transform="matrix(-0.991468 0.130353 0.130353 0.991468 326.212 398.657)" fill="#6455C2"/>
<rect width="223.101" height="39" rx="19.5" transform="matrix(-0.991468 0.130353 0.130353 0.991468 352.92 519.068)" fill="white"/>
<rect width="164.686" height="39" rx="19.5" transform="matrix(-0.991468 0.130353 0.130353 0.991468 537.685 495.465)" fill="white"/>
<path d="M62.4641 130.12C62.4641 130.12 45.6353 136.664 44.7004 158.168C43.7655 179.671 49.3751 239.506 49.3751 239.506C49.3751 239.506 28.8066 269.424 44.7004 277.839C60.5942 286.253 62.4641 244.181 62.4641 244.181L81.1627 155.363C81.1627 155.363 69.9435 129.185 62.4641 130.12Z" fill="#EDC9B9"/>
<path d="M234.491 199.304C234.491 199.304 274.693 225.482 276.563 204.914C278.433 184.346 264.409 103.942 264.409 103.942C264.409 103.942 262.539 69.3491 242.906 77.7636C223.272 86.178 248.515 115.161 248.515 115.161L245.71 180.606L227.012 179.671L234.491 199.304Z" fill="#EDC9B9"/>
<path d="M169.981 223.613C169.981 223.613 293.392 177.801 286.847 231.092C280.303 284.383 248.515 351.698 248.515 351.698L237.296 369.462H213.923L228.882 273.164C228.882 273.164 175.591 303.082 159.697 298.407C159.697 298.407 139.128 435.842 131.649 446.126C124.169 456.41 111.08 580.756 111.08 580.756L98.9263 595.715H75.5531V385.356C75.5531 385.356 35.3511 254.465 66.2038 247.921C97.0565 241.376 169.981 223.613 169.981 223.613Z" fill="#001466"/>
<path d="M97.1348 586.461C97.1348 586.461 110.92 575.108 114.164 578.352C117.407 581.595 134.436 603.489 134.436 603.489C134.436 603.489 179.845 638.357 138.49 644.034C97.1348 649.71 99.5675 634.303 99.5675 634.303H86.5933C84.9716 634.303 63.0776 624.572 63.8885 620.518C64.6993 616.464 74.43 583.402 77.6735 585.742C80.9171 588.082 97.1348 586.461 97.1348 586.461Z" fill="#2F2E41"/>
<path d="M222.337 94.5923C204.781 94.5923 190.549 80.3605 190.549 62.8047C190.549 45.2488 204.781 31.017 222.337 31.017C239.893 31.017 254.125 45.2488 254.125 62.8047C254.125 80.3605 239.893 94.5923 222.337 94.5923Z" fill="#EDC9B9"/>
<path d="M199.899 59.0649C199.899 59.0649 175.591 79.6334 158.762 79.6334C141.933 79.6334 183.07 117.966 183.07 117.966L219.532 85.243L199.899 59.0649Z" fill="#EDC9B9"/>
<path d="M190.549 117.966L191.278 110.6C191.278 110.6 172.786 77.7636 167.176 74.9588C161.567 72.154 157.827 72.154 157.827 72.154C157.827 72.154 139.128 52.5204 118.56 62.8047C97.9913 73.0889 49.375 138.534 49.375 138.534C49.375 138.534 83.9674 141.339 79.2928 168.452C79.2928 168.452 44.7004 257.27 54.0497 258.205C63.399 259.14 91.4468 252.596 120.43 265.685C149.412 278.774 162.502 270.359 162.502 270.359L177.46 221.743C177.46 221.743 205.508 205.849 204.573 191.825L245.243 210.056L241.503 175.464L216.728 146.948C216.728 146.948 221.402 143.209 190.549 117.966Z" fill="#FCD561"/>
<path d="M251.578 66.2413C252.841 67.6453 254.424 68.7238 256.194 69.385C258.004 69.8956 260.285 69.2694 261.007 67.5322L259.663 65.7828L263.692 63.2789L261.936 61.2188L265.182 57.6944L262.62 55.6621L267.497 52.174C261.176 41.8594 254.34 31.4156 244.36 24.5779C234.381 17.7403 220.436 15.3107 210.212 21.7781C204.904 25.136 201.151 30.4654 198.144 35.9799C192.098 47.0701 186.768 57.8806 185.981 70.4875C189.779 66.7888 195.324 64.7045 199.122 61.0058C200.804 59.2211 202.71 57.6613 204.792 56.3651C208.764 54.1249 213.518 53.9267 217.965 52.9161C221.705 52.0664 224.131 50.3808 226.96 47.9711C230.326 45.1045 230.463 46.2129 233.862 49.4403C239.763 55.0446 245.669 60.6449 251.578 66.2413Z" fill="#001466"/>
<path d="M129.516 172C136.716 156 101.516 148.167 84.5158 144.5L69.0159 193.5L62.5159 213.5L58.0159 232V241.5C64.0159 240.833 81.5159 238.4 93.5159 232C108.516 224 99.5159 216 100.516 200C101.516 184 120.516 192 129.516 172Z" fill="#FBBB06"/>
<path d="M143.516 84C146.183 85.1667 153.816 84.6 163.016 73L156.516 70.5L152.516 67.5L145.516 63L139.516 61C138.516 62.3333 137.116 67.2 139.516 76C141.916 84.8 143.183 85 143.516 84Z" fill="#FBBB06"/>
<path d="M240.45 362.402C240.45 362.402 244.671 351.474 255.281 360.452C265.891 369.43 289.723 378.555 289.723 378.555C289.723 378.555 339.387 383.341 301.673 397.729C263.96 412.118 258.107 403.457 258.107 403.457C258.107 403.457 251.862 406.164 246.544 408.75C241.226 411.335 204.221 409.599 203.49 404.037C202.759 398.476 210.662 363.624 216.31 368C221.959 372.377 240.45 362.402 240.45 362.402Z" fill="#2F2E41"/>
</g>
<defs>
<clipPath id="clip0">
<rect width="1075.52" height="646.899" transform="matrix(-1 0 0 1 1075.52 0)" fill="white"/>
</clipPath>
</defs>
</svg>
