<svg width="1076" height="647" viewBox="0 0 1076 647" fill="none" xmlns="http://www.w3.org/2000/svg">
<g clip-path="url(#clip0)">
<path d="M656.88 533.024C659.543 553.284 645.279 571.867 625.019 574.531L95.7344 644.119C73.8315 646.998 53.7413 631.577 50.8617 609.674L8.89669 290.488L577.839 215.686C598.1 213.023 616.683 227.287 619.347 247.548L656.88 533.024Z" fill="#6455C2"/>
<path d="M463.945 231.435C469.572 269.421 489.903 303.673 520.553 326.806C551.204 349.938 589.718 360.098 627.79 355.094C629.496 354.87 631.187 354.617 632.875 354.335L618.5 243C616.289 235.533 613.699 231.37 606 224C597.573 218.709 597 217.5 583.5 215L463.945 231.435Z" fill="#6C63FF"/>
<path d="M329.626 613.246L387.335 605.656C384.387 600.036 379.786 595.456 374.152 592.534C368.518 589.613 362.124 588.49 355.832 589.317C349.54 590.145 343.654 592.883 338.967 597.162C334.281 601.441 331.02 607.055 329.626 613.246V613.246Z" fill="#6C63FF"/>
<path d="M31.308 463.129L47.3353 584.98C62.8782 582.158 76.7399 573.465 86.0492 560.702C95.3584 547.94 99.4018 532.085 97.3417 516.423C95.2816 500.761 87.276 486.491 74.9831 476.57C62.6902 466.649 47.0521 461.836 31.308 463.129V463.129Z" fill="#6C63FF"/>
<path d="M518.841 356.469C517.401 345.518 507.356 337.807 496.405 339.247L125.596 387.999C114.644 389.439 106.933 399.484 108.373 410.435L122.191 515.531C123.631 526.482 133.676 534.193 144.627 532.753L515.436 484.001C526.388 482.561 534.098 472.516 532.658 461.565L518.841 356.469Z" fill="white"/>
<rect width="175.151" height="74.0998" rx="20" transform="matrix(-0.991468 0.130353 0.130353 0.991468 326.212 397.657)" fill="#6455C2"/>
<rect width="223.101" height="39" rx="19.5" transform="matrix(-0.991468 0.130353 0.130353 0.991468 352.92 518.068)" fill="white"/>
<rect width="164.686" height="39" rx="19.5" transform="matrix(-0.991468 0.130353 0.130353 0.991468 537.685 494.465)" fill="white"/>
<path d="M62.4641 124.12C62.4641 124.12 45.6353 130.664 44.7004 152.168C43.7655 173.671 49.3751 233.506 49.3751 233.506C49.3751 233.506 28.8066 263.424 44.7004 271.839C60.5942 280.253 62.4641 238.181 62.4641 238.181L81.1627 149.363C81.1627 149.363 69.9435 123.185 62.4641 124.12Z" fill="#EDC9B9"/>
<path d="M234.491 193.304C234.491 193.304 274.693 219.482 276.563 198.914C278.433 178.346 264.409 97.9416 264.409 97.9416C264.409 97.9416 262.539 63.3491 242.906 71.7636C223.272 80.178 248.515 109.161 248.515 109.161L245.71 174.606L227.012 173.671L234.491 193.304Z" fill="#EDC9B9"/>
<path d="M169.981 217.613C169.981 217.613 293.392 171.801 286.847 225.092C280.303 278.383 248.515 345.698 248.515 345.698L228.882 379.356H206L228.882 267.164C228.882 267.164 175.591 297.082 159.697 292.407C159.697 292.407 139.128 429.842 131.649 440.126C124.169 450.41 111.08 574.756 111.08 574.756L98.9263 589.715H75.5531V379.356C75.5531 379.356 35.3511 248.465 66.2038 241.921C97.0565 235.376 169.981 217.613 169.981 217.613Z" fill="#001466"/>
<path d="M97.1348 580.461C97.1348 580.461 110.92 569.108 114.164 572.352C117.407 575.595 134.436 597.489 134.436 597.489C134.436 597.489 179.845 632.357 138.49 638.034C97.1348 643.71 99.5675 628.303 99.5675 628.303H86.5933C84.9716 628.303 63.0776 618.572 63.8885 614.518C64.6993 610.464 74.43 577.402 77.6735 579.742C80.9171 582.082 97.1348 580.461 97.1348 580.461Z" fill="#2F2E41"/>
<path d="M222.337 88.5923C204.781 88.5923 190.549 74.3605 190.549 56.8047C190.549 39.2488 204.781 25.017 222.337 25.017C239.893 25.017 254.125 39.2488 254.125 56.8047C254.125 74.3605 239.893 88.5923 222.337 88.5923Z" fill="#EDC9B9"/>
<path d="M199.899 53.0649C199.899 53.0649 175.591 73.6334 158.762 73.6334C141.933 73.6334 183.07 111.966 183.07 111.966L219.532 79.243L199.899 53.0649Z" fill="#EDC9B9"/>
<path d="M190.549 111.966L191.278 104.6C191.278 104.6 172.786 71.7636 167.176 68.9588C161.567 66.154 157.827 66.154 157.827 66.154C157.827 66.154 139.128 46.5204 118.56 56.8047C97.9913 67.0889 49.375 132.534 49.375 132.534C49.375 132.534 83.9674 135.339 79.2928 162.452C79.2928 162.452 44.7004 251.27 54.0497 252.205C63.399 253.14 91.4468 246.596 120.43 259.685C149.412 272.774 162.502 264.359 162.502 264.359L177.46 215.743C177.46 215.743 205.508 199.849 204.573 185.825L245.243 204.056L241.503 169.464L216.728 140.948C216.728 140.948 221.402 137.209 190.549 111.966Z" fill="#FCD561"/>
<path d="M251.578 60.2413C252.841 61.6453 254.424 62.7238 256.194 63.385C258.004 63.8956 260.285 63.2694 261.007 61.5322L259.663 59.7828L263.692 57.2789L261.936 55.2188L265.182 51.6944L262.62 49.6621L267.497 46.174C261.176 35.8594 254.34 25.4156 244.36 18.5779C234.381 11.7403 220.436 9.31068 210.212 15.7781C204.904 19.136 201.151 24.4654 198.144 29.9799C192.098 41.0701 186.768 51.8806 185.981 64.4875C189.779 60.7888 195.324 58.7045 199.122 55.0058C200.804 53.2211 202.71 51.6613 204.792 50.3651C208.764 48.1249 213.518 47.9267 217.965 46.9161C221.705 46.0664 224.131 44.3808 226.96 41.9711C230.326 39.1045 230.463 40.2129 233.862 43.4403C239.763 49.0446 245.669 54.6449 251.578 60.2413Z" fill="#001466"/>
<path d="M129.516 166C136.716 150 101.516 142.167 84.5158 138.5L69.0159 187.5L62.5159 207.5L58.0159 226V235.5C64.0159 234.833 81.5159 232.4 93.5159 226C108.516 218 99.5159 210 100.516 194C101.516 178 120.516 186 129.516 166Z" fill="#FBBB06"/>
<path d="M143.516 78C146.183 79.1667 153.816 78.6 163.016 67L156.516 64.5L152.516 61.5L145.516 57L139.516 55C138.516 56.3333 137.116 61.2 139.516 70C141.916 78.8 143.183 79 143.516 78Z" fill="#FBBB06"/>
<path d="M234.45 362.402C234.45 362.402 238.671 351.474 249.281 360.452C259.891 369.43 283.723 378.555 283.723 378.555C283.723 378.555 333.387 383.341 295.673 397.729C257.96 412.118 252.107 403.457 252.107 403.457C252.107 403.457 245.862 406.164 240.544 408.75C235.226 411.335 198.221 409.599 197.49 404.037C196.759 398.476 204.662 363.624 210.31 368C215.959 372.377 234.45 362.402 234.45 362.402Z" fill="#2F2E41"/>
</g>
<defs>
<clipPath id="clip0">
<rect width="1075.52" height="646.899" transform="matrix(-1 0 0 1 1075.52 0)" fill="white"/>
</clipPath>
</defs>
</svg>
